<?xml version="1.0" encoding="UTF-8"?>
<svg xmlns="http://www.w3.org/2000/svg" viewBox="0 0 1200 760" role="img" aria-label="Centro histórico de Cartagena de Indias al atardecer">
  <defs>
    <linearGradient id="heroSky" x1="0" y1="0" x2="0" y2="1">
      <stop offset="0" stop-color="#173f55"/>
      <stop offset="0.4" stop-color="#3a7288"/>
      <stop offset="0.68" stop-color="#d98f5f"/>
      <stop offset="0.86" stop-color="#f2b26f"/>
      <stop offset="1" stop-color="#f7cf93"/>
    </linearGradient>
    <linearGradient id="heroSea" x1="0" y1="0" x2="0" y2="1">
      <stop offset="0" stop-color="#3d7f95"/>
      <stop offset="0.4" stop-color="#2a6076"/>
      <stop offset="1" stop-color="#153c4f"/>
    </linearGradient>
    <linearGradient id="heroHill" x1="0" y1="0" x2="0" y2="1">
      <stop offset="0" stop-color="#6d9852"/>
      <stop offset="1" stop-color="#4d7239"/>
    </linearGradient>
    <radialGradient id="heroSun" cx="0.5" cy="0.5" r="0.5">
      <stop offset="0" stop-color="#ffe9bb"/>
      <stop offset="0.55" stop-color="#ffd085" stop-opacity="0.9"/>
      <stop offset="1" stop-color="#ffcf80" stop-opacity="0"/>
    </radialGradient>
  </defs>

  <rect width="1200" height="760" fill="url(#heroSky)"/>

  <circle cx="880" cy="330" r="150" fill="url(#heroSun)"/>
  <circle cx="880" cy="330" r="58" fill="#ffe4ab"/>

  <g fill="#f6d7a8" opacity="0.55">
    <path d="M120 170c40-26 96-24 132 2 22-14 58-12 74 8-60 8-160 10-206-10z"/>
    <path d="M520 120c30-20 74-18 102 2 18-10 44-9 56 6-46 6-122 8-158-8z"/>
    <path d="M940 200c34-22 82-20 112 4 20-12 50-10 64 8-52 8-136 10-176-12z"/>
  </g>

  <rect y="430" width="1200" height="330" fill="url(#heroSea)"/>
  <ellipse cx="880" cy="470" rx="150" ry="26" fill="#f6c98a" opacity="0.35"/>

  <g fill="#0f3040" opacity="0.85">
    <path d="M0 430h1200v18c-80 8-160-6-240 0s-160 12-240 6-160-14-240-8-160 12-240 8S80 442 0 448z"/>
  </g>

  <g>
    <path d="M0 520h1200v60H0z" fill="#1d4a5e" opacity="0.35"/>
    <path d="M0 500c60 10 120-8 180 0s120 14 180 4 120-16 180-6 120 16 180 6 120-14 180-4 120 14 180 4 120-12 120-12v30c-60 12-120-4-180 4s-120 14-180 6-120-16-180-6-120 14-180 4-120-14-180-4-120 12-120 12z" fill="#5fa3b6" opacity="0.22"/>
  </g>

  <g>
    <path d="M150 300l70-8 20 10v118H150z" fill="#9c6f4c"/>
    <path d="M170 290h26l10 12h-36z" fill="#8a5f40"/>
    <path d="M150 300h90v12h-90z" fill="#b98a5d"/>
    <g fill="#8a5f40">
      <rect x="150" y="300" width="10" height="10"/>
      <rect x="166" y="300" width="10" height="10"/>
      <rect x="182" y="300" width="10" height="10"/>
      <rect x="198" y="300" width="10" height="10"/>
      <rect x="214" y="300" width="10" height="10"/>
      <rect x="230" y="300" width="10" height="10"/>
    </g>
    <path d="M240 330c0-34 28-56 56-56s56 22 56 56z" fill="#c06a45"/>
    <rect x="288" y="252" width="16" height="26" fill="#a35538"/>
    <path d="M296 236l0-14" stroke="#5c3a28" stroke-width="4"/>
    <path d="M296 222l22 6-22 8z" fill="#d9a94e"/>
  </g>

  <g>
    <path d="M330 380h420v76H330z" fill="#b98a5d"/>
    <g fill="#a97b52">
      <rect x="338" y="380" width="18" height="14"/>
      <rect x="374" y="380" width="18" height="14"/>
      <rect x="410" y="380" width="18" height="14"/>
      <rect x="446" y="380" width="18" height="14"/>
      <rect x="482" y="380" width="18" height="14"/>
      <rect x="518" y="380" width="18" height="14"/>
      <rect x="554" y="380" width="18" height="14"/>
      <rect x="590" y="380" width="18" height="14"/>
      <rect x="626" y="380" width="18" height="14"/>
      <rect x="662" y="380" width="18" height="14"/>
      <rect x="698" y="380" width="18" height="14"/>
    </g>
    <path d="M420 380l30-60 30 60z" fill="#a35538"/>
    <path d="M540 380V300a40 40 0 0 1 80 0v80z" fill="#c06a45"/>
    <rect x="574" y="284" width="12" height="20" fill="#a35538"/>
    <path d="M580 268v-12" stroke="#5c3a28" stroke-width="4"/>
    <path d="M580 256l18 6-18 7z" fill="#d9a94e"/>
    <path d="M660 380v-70h86v70z" fill="#b98a5d"/>
    <path d="M654 312h98l-49-26z" fill="#8d4f3a"/>
  </g>

  <g fill="#4d7239">
    <path d="M120 480c6-60 4-116-8-164l10-2c14 48 16 108 10 166z"/>
    <g stroke="#4d7239" stroke-width="7" stroke-linecap="round" fill="none">
      <path d="M122 322c-26-16-44-38-52-62"/>
      <path d="M122 330c-34-8-58-24-72-46"/>
      <path d="M122 340c-30 2-58-4-80-20"/>
      <path d="M124 316c22-14 38-34 44-58"/>
      <path d="M124 326c30-6 52-20 66-42"/>
      <path d="M124 338c28 4 54 0 74-14"/>
    </g>
  </g>

  <g fill="#3f6230">
    <path d="M1080 500c4-44 2-86-6-122l8-2c10 36 12 80 8 124z"/>
    <g stroke="#3f6230" stroke-width="6" stroke-linecap="round" fill="none">
      <path d="M1082 384c-20-12-34-30-40-48"/>
      <path d="M1082 392c-26-6-44-18-56-36"/>
      <path d="M1082 400c-24 2-46-2-62-14"/>
      <path d="M1084 378c16-10 28-26 34-44"/>
      <path d="M1084 388c22-4 40-16 52-32"/>
      <path d="M1084 398c22 2 42 0 58-10"/>
    </g>
  </g>

  <g>
    <path d="M0 640c60 14 120-10 180-2s120 18 180 8 120-20 180-10 120 18 180 8 120-18 180-8 120 16 180 6 120-14 120-14v140H0z" fill="#1a4557"/>
    <path d="M0 690c60 12 120-8 180-2s120 14 180 6 120-16 180-8 120 16 180 6 120-14 180-6 120 12 180 4 120-10 120-10v80H0z" fill="#163b4b"/>
  </g>

  <g stroke="#e8d7ae" stroke-width="3" fill="none" opacity="0.55" stroke-linecap="round">
    <path d="M180 560c14-8 30-8 44 0"/>
    <path d="M420 600c16-9 34-9 50 0"/>
    <path d="M760 570c14-8 30-8 44 0"/>
    <path d="M1000 620c16-9 34-9 50 0"/>
  </g>

  <g fill="none" stroke="#22384a" stroke-width="4" stroke-linecap="round">
    <path d="M760 210c8-8 16-8 24 0"/>
    <path d="M786 196c7-7 14-7 21 0"/>
    <path d="M812 216c6-6 12-6 18 0"/>
    <path d="M212 240c6-6 12-6 18 0"/>
    <path d="M236 228c5-5 10-5 15 0"/>
  </g>

  <g>
    <path d="M950 560c8-40 42-64 84-64 4 0 8 0 12 1-26 10-44 30-48 63z" fill="#101f2c" opacity="0.92"/>
    <path d="M1034 497l38-58 4 2-30 62z" fill="#101f2c" opacity="0.92"/>
    <path d="M1072 507l30-44 36 6-56 44z" fill="#f1e2c2" opacity="0.95"/>
    <rect x="954" y="556" width="150" height="10" rx="4" fill="#0c1823" opacity="0.92"/>
  </g>

  <g>
    <path d="M240 600c6-26 26-42 54-42 3 0 5 0 8 1-17 6-28 19-31 41z" fill="#12222f" opacity="0.9"/>
    <path d="M294 559l24-36 3 1-19 39z" fill="#12222f" opacity="0.9"/>
    <path d="M318 565l20-28 22 4-36 28z" fill="#efe0bf" opacity="0.92"/>
  </g>
</svg>
